<?xml version="1.0" encoding="UTF-8"?>
<svg xmlns="http://www.w3.org/2000/svg" xmlns:xlink="http://www.w3.org/1999/xlink" width="32px" height="24px" viewBox="0 0 512 512" version="1.2">
<defs>
<clipPath id="clip1">
  <path d="M 0.0898438 0.167969 L 577 0.167969 L 577 383.832031 L 0.0898438 383.832031 Z M 0.0898438 0.167969 "/>
</clipPath>
</defs>
<g id="surface1">
<path style=" stroke:none;fill-rule:nonzero;fill:rgb(100%,100%,100%);fill-opacity:1;" d="M 572.527344 344.460938 C 572.527344 363.453125 557.105469 378.855469 538.082031 378.855469 L 37.929688 378.855469 C 18.902344 378.855469 3.480469 363.453125 3.480469 344.460938 L 3.480469 39.625 C 3.480469 20.632812 18.902344 5.230469 37.929688 5.230469 L 538.082031 5.230469 C 557.105469 5.230469 572.527344 20.628906 572.527344 39.625 Z M 572.527344 344.460938 "/>
<g clip-path="url(#clip1)" clip-rule="nonzero">
<path style=" stroke:none;fill-rule:nonzero;fill:rgb(9.01947%,15.289307%,33.729553%);fill-opacity:1;" d="M 538.082031 383.847656 L 37.929688 383.847656 C 16.175781 383.847656 -1.523438 366.179688 -1.523438 344.460938 L -1.523438 39.625 C -1.523438 17.90625 16.175781 0.238281 37.929688 0.238281 L 538.082031 0.238281 C 559.832031 0.238281 577.53125 17.90625 577.53125 39.625 L 577.53125 344.460938 C 577.53125 366.179688 559.835938 383.847656 538.082031 383.847656 Z M 37.929688 10.226562 C 21.691406 10.226562 8.484375 23.414062 8.484375 39.625 L 8.484375 344.460938 C 8.484375 360.671875 21.691406 373.859375 37.929688 373.859375 L 538.082031 373.859375 C 554.316406 373.859375 567.523438 360.671875 567.523438 344.460938 L 567.523438 39.625 C 567.523438 23.417969 554.316406 10.226562 538.082031 10.226562 Z M 37.929688 10.226562 "/>
</g>
<path style=" stroke:none;fill-rule:nonzero;fill:rgb(100%,100%,100%);fill-opacity:1;" d="M 12.714844 16.242188 L 288.003906 257.523438 "/>
<path style=" stroke:none;fill-rule:nonzero;fill:rgb(9.01947%,15.289307%,33.729553%);fill-opacity:1;" d="M 288 262.515625 C 286.828125 262.515625 285.65625 262.105469 284.703125 261.277344 L 9.414062 19.996094 C 7.339844 18.175781 7.132812 15.023438 8.953125 12.949219 C 10.777344 10.875 13.9375 10.671875 16.011719 12.488281 L 291.300781 253.769531 C 293.378906 255.589844 293.582031 258.742188 291.761719 260.816406 C 290.773438 261.941406 289.390625 262.515625 288 262.515625 Z M 288 262.515625 "/>
<path style=" stroke:none;fill-rule:nonzero;fill:rgb(100%,100%,100%);fill-opacity:1;" d="M 14.15625 370.066406 L 208.496094 187.839844 "/>
<path style=" stroke:none;fill-rule:nonzero;fill:rgb(9.01947%,15.289307%,33.729553%);fill-opacity:1;" d="M 14.15625 375.058594 C 12.824219 375.058594 11.492188 374.53125 10.507812 373.484375 C 8.617188 371.472656 8.714844 368.3125 10.730469 366.425781 L 205.074219 184.199219 C 207.082031 182.316406 210.25 182.410156 212.144531 184.421875 C 214.035156 186.433594 213.9375 189.59375 211.921875 191.484375 L 17.578125 373.707031 C 16.613281 374.609375 15.382812 375.058594 14.15625 375.058594 Z M 14.15625 375.058594 "/>
<path style=" stroke:none;fill-rule:nonzero;fill:rgb(100%,100%,100%);fill-opacity:1;" d="M 563.503906 370.066406 L 369.15625 187.839844 "/>
<path style=" stroke:none;fill-rule:nonzero;fill:rgb(9.01947%,15.289307%,33.729553%);fill-opacity:1;" d="M 563.503906 375.058594 C 562.277344 375.058594 561.046875 374.609375 560.082031 373.707031 L 365.734375 191.484375 C 363.71875 189.59375 363.621094 186.433594 365.511719 184.421875 C 367.402344 182.410156 370.570312 182.316406 372.582031 184.199219 L 566.929688 366.425781 C 568.945312 368.3125 569.042969 371.472656 567.152344 373.484375 C 566.167969 374.53125 564.839844 375.058594 563.503906 375.058594 Z M 563.503906 375.058594 "/>
<path style=" stroke:none;fill-rule:nonzero;fill:rgb(100%,100%,100%);fill-opacity:1;" d="M 563.503906 16.578125 L 288.003906 257.523438 "/>
<path style=" stroke:none;fill-rule:nonzero;fill:rgb(9.01947%,15.289307%,33.729553%);fill-opacity:1;" d="M 288.007812 262.515625 C 286.613281 262.515625 285.230469 261.941406 284.238281 260.8125 C 282.417969 258.738281 282.628906 255.582031 284.710938 253.761719 L 560.214844 12.820312 C 562.289062 11 565.453125 11.207031 567.273438 13.285156 C 569.09375 15.363281 568.882812 18.515625 566.800781 20.335938 L 291.300781 261.28125 C 290.351562 262.109375 289.175781 262.515625 288.007812 262.515625 Z M 288.007812 262.515625 "/>
</g>
</svg>
